<?xml version="1.0" encoding="UTF-8"?>
<svg xmlns="http://www.w3.org/2000/svg" xmlns:xlink="http://www.w3.org/1999/xlink" width="1446.75pt" height="809.999993pt" viewBox="0 0 1446.75 809.999993" version="1.2">
<defs>
<clipPath id="clip1">
  <path d="M 352 35 L 964 35 L 964 786.21875 L 352 786.21875 Z M 352 35 "/>
</clipPath>
<clipPath id="clip2">
  <path d="M 1080 179 L 1130.34375 179 L 1130.34375 351 L 1080 351 Z M 1080 179 "/>
</clipPath>
</defs>
<g id="surface1">
<g clip-path="url(#clip1)" clip-rule="nonzero">
<path style=" stroke:none;fill-rule:nonzero;fill:rgb(0%,0%,0%);fill-opacity:1;" d="M 920.140625 191.90625 L 939.257812 150.675781 C 948.378906 131.027344 949.316406 109 941.855469 88.648438 C 934.410156 68.3125 919.492188 52.070312 899.832031 42.96875 C 859.320312 24.164062 810.96875 41.851562 792.15625 82.410156 L 773.179688 123.292969 C 773.128906 123.386719 773.144531 123.492188 773.109375 123.582031 C 700.324219 124.25 633.71875 167.027344 603.046875 233.132812 L 572.703125 298.53125 C 504.675781 445.234375 445.675781 516.546875 392.332031 516.546875 C 383.378906 516.546875 374.3125 514.457031 365.375 510.328125 L 365.25 510.273438 C 360.707031 508.148438 355.375 510.128906 353.28125 514.65625 C 351.191406 519.160156 353.15625 524.515625 357.664062 526.605469 L 573.277344 626.671875 C 549.78125 632.511719 529.5625 648.59375 519.109375 671.109375 C 500.296875 711.667969 517.992188 760 558.539062 778.816406 C 569.332031 783.828125 580.792969 786.371094 592.613281 786.371094 C 624.097656 786.371094 652.984375 767.929688 666.210938 739.375 C 676.988281 716.140625 675.457031 690.503906 664.839844 669.179688 L 880.765625 769.371094 C 881.972656 769.949219 883.289062 770.21875 884.546875 770.21875 C 887.9375 770.21875 891.199219 768.289062 892.710938 764.992188 C 894.800781 760.484375 892.855469 755.132812 888.332031 753.039062 L 888.261719 752.984375 C 858.796875 739.285156 846.019531 710.390625 849.226562 664.636719 C 852.6875 614.867188 874.527344 547.210938 915.957031 457.851562 L 946.304688 392.433594 C 967.585938 346.574219 969.730469 295.160156 952.34375 247.695312 C 944.808594 227.019531 933.78125 208.34375 920.140625 191.90625 Z M 649.902344 731.804688 C 639.613281 753.996094 617.140625 768.34375 592.652344 768.34375 C 583.476562 768.34375 574.558594 766.378906 566.160156 762.484375 C 534.625 747.847656 520.855469 710.261719 535.488281 678.699219 C 545.796875 656.507812 568.269531 642.15625 592.742188 642.15625 C 601.914062 642.15625 610.832031 644.121094 619.230469 648.015625 C 650.765625 662.65625 664.535156 700.238281 649.902344 731.804688 Z M 892.242188 59.316406 C 907.523438 66.402344 919.128906 79.019531 924.914062 94.847656 C 930.699219 110.675781 929.976562 127.800781 922.914062 143.089844 L 906.929688 177.574219 C 891.738281 162.738281 874.152344 150.28125 854.308594 141.085938 C 834.558594 131.910156 813.816406 126.429688 792.480469 124.429688 L 808.464844 90.015625 C 823.117188 58.453125 860.671875 44.699219 892.242188 59.316406 Z M 930.015625 384.84375 L 899.667969 450.261719 C 857.265625 541.660156 834.902344 611.386719 831.28125 663.375 C 829.386719 690.703125 832.8125 713.363281 841.515625 731.300781 L 412.246094 532.085938 C 467.769531 518.117188 524.515625 445.34375 589.066406 306.121094 L 619.410156 240.722656 C 647.363281 180.441406 708.359375 141.484375 774.820312 141.484375 C 799.742188 141.484375 823.964844 146.855469 846.757812 157.4375 C 888.242188 176.691406 919.742188 210.941406 935.457031 253.898438 C 951.171875 296.839844 949.242188 343.347656 930.015625 384.84375 Z M 930.015625 384.84375 "/>
</g>
<path style=" stroke:none;fill-rule:nonzero;fill:rgb(0%,0%,0%);fill-opacity:1;" d="M 808.808594 239.1875 C 789.148438 230.050781 767.109375 229.148438 746.800781 236.574219 C 726.472656 244.019531 710.253906 258.964844 701.136719 278.632812 C 699.042969 283.136719 701.007812 288.507812 705.515625 290.601562 C 706.738281 291.175781 708.035156 291.429688 709.296875 291.429688 C 712.703125 291.429688 715.964844 289.5 717.480469 286.203125 C 724.578125 270.898438 737.195312 259.269531 753 253.484375 C 768.820312 247.679688 785.941406 248.4375 801.238281 255.519531 C 805.707031 257.613281 811.113281 255.648438 813.1875 251.140625 C 815.277344 246.652344 813.332031 241.28125 808.808594 239.1875 Z M 808.808594 239.1875 "/>
<path style=" stroke:none;fill-rule:nonzero;fill:rgb(0%,0%,0%);fill-opacity:1;" d="M 368.78125 317.929688 C 371.085938 317.929688 373.394531 317.046875 375.160156 315.296875 C 378.675781 311.78125 378.675781 306.066406 375.160156 302.550781 C 336.523438 263.902344 336.523438 201.007812 375.160156 162.359375 C 378.675781 158.84375 378.675781 153.128906 375.160156 149.613281 C 371.644531 146.097656 365.933594 146.097656 362.417969 149.613281 C 316.753906 195.292969 316.753906 269.617188 362.417969 315.296875 C 364.167969 317.046875 366.472656 317.929688 368.78125 317.929688 Z M 368.78125 317.929688 "/>
<g clip-path="url(#clip2)" clip-rule="nonzero">
<path style=" stroke:none;fill-rule:nonzero;fill:rgb(0%,0%,0%);fill-opacity:1;" d="M 1083.226562 182.027344 C 1079.710938 185.542969 1079.710938 191.253906 1083.226562 194.769531 C 1101.949219 213.5 1112.257812 238.394531 1112.257812 264.875 C 1112.257812 291.359375 1101.949219 316.253906 1083.226562 334.984375 C 1079.710938 338.496094 1079.710938 344.210938 1083.226562 347.726562 C 1084.992188 349.496094 1087.296875 350.359375 1089.605469 350.359375 C 1091.910156 350.359375 1094.21875 349.476562 1095.984375 347.726562 C 1118.113281 325.589844 1130.296875 296.1875 1130.296875 264.875 C 1130.296875 233.5625 1118.09375 204.164062 1095.984375 182.027344 C 1092.453125 178.492188 1086.757812 178.492188 1083.226562 182.027344 Z M 1083.226562 182.027344 "/>
</g>
</g>
</svg>
