<?xml version="1.0" encoding="UTF-8"?>
<svg id="Layer_1" data-name="Layer 1" xmlns="http://www.w3.org/2000/svg" viewBox="0 0 1028.49 587.72">
  <defs>
    <style>
      .cls-1, .cls-2 {
        fill: #fff;
      }

      .cls-2 {
        font-family: MyriadPro-Regular, 'Myriad Pro';
        font-size: 121.78px;
      }
    </style>
  </defs>
  <path class="cls-1" d="m0,351.99c12.92-2.79,28.28-4.88,45.1-4.88,30.47,0,52.17,10.11,66.55,29.29,14.63,19.18,23.16,46.38,23.16,84.39s-8.29,69.74-23.65,91.36c-15.36,21.97-40.71,33.82-72.64,33.82-15.11,0-27.79-1.05-38.52-2.79v-231.19Zm21.21,207.83c5.36,1.39,13.16,1.74,21.45,1.74,45.34,0,69.96-36.27,69.96-99.73.24-55.45-21.7-90.67-66.55-90.67-10.97,0-19.26,1.4-24.86,3.14v185.51Z"/>
  <path class="cls-1" d="m186.49,348.85v235.03h-21.21v-235.03h21.21Z"/>
  <path class="cls-1" d="m223.54,546.92c9.51,8.37,23.4,15.34,38.03,15.34,21.7,0,34.37-16.39,34.37-40.1,0-21.97-8.78-34.52-30.96-46.73-26.82-13.6-43.39-33.48-43.39-66.6,0-36.61,21.21-63.81,53.14-63.81,16.82,0,29.01,5.58,36.32,11.51l-5.85,24.76c-5.36-4.18-16.33-11.16-31.2-11.16-22.43,0-30.96,19.18-30.96,35.22,0,21.97,9.99,32.78,32.67,45.33,27.79,15.34,41.93,34.52,41.93,69.04,0,36.27-18.77,67.65-57.53,67.65-15.85,0-33.15-6.63-41.93-15l5.36-25.46Z"/>
  <path class="cls-1" d="m464.39,576.21c-7.8,5.58-23.4,11.16-43.39,11.16-46.32,0-81.18-41.85-81.18-118.91s34.86-123.44,85.81-123.44c20.48,0,33.4,6.28,39,10.46l-5.12,24.76c-8.04-5.58-19.5-9.76-33.15-9.76-38.52,0-64.11,35.22-64.11,96.94,0,57.54,23.16,94.5,63.14,94.5,12.92,0,26.08-3.84,34.62-9.76l4.39,24.06Z"/>
  <path class="cls-1" d="m629.18,463.93c0,80.9-34.37,123.79-76.3,123.79s-73.86-48.12-73.86-119.26c0-74.62,32.42-123.44,76.3-123.44s73.86,49.17,73.86,118.91Zm-127.49,3.84c0,50.21,19.01,95.2,52.41,95.2s52.66-44.29,52.66-97.64c0-46.73-17.06-95.55-52.41-95.55s-52.66,46.38-52.66,97.99Z"/>
  <path class="cls-1" d="m695.73,583.88l-53.63-235.03h22.92l25.6,115.77c7.07,31.73,13.16,60.33,17.55,87.88h.49c4.63-27.2,11.46-56.84,18.77-87.53l27.79-116.12h22.67l-58.75,235.03h-23.4Z"/>
  <path class="cls-1" d="m883.69,473.69h-63.87v84.74h71.18v25.46h-92.39v-235.03h88.73v25.46h-67.53v74.28h63.87v25.11Z"/>
  <path class="cls-1" d="m921.47,351.99c10.73-3.14,26.08-4.88,40.71-4.88,22.67,0,37.3,5.93,47.54,19.18,8.29,10.46,12.92,26.5,12.92,44.63,0,31.04-13.65,51.61-30.96,59.98v1.05c12.68,6.28,20.23,23.01,24.13,47.42,5.36,32.78,9.26,55.44,12.68,64.51h-21.94c-2.68-6.62-6.34-26.85-10.97-56.14-4.88-32.43-13.65-44.63-32.91-45.68h-19.99v101.82h-21.21v-231.89Zm21.21,107.05h21.7c22.67,0,37.05-17.78,37.05-44.63,0-30.34-15.36-43.59-37.79-43.94-10.24,0-17.55,1.39-20.96,2.79v85.78Z"/>
  <path class="cls-1" d="m257.98,93.56h-53.57v59.44h59.7v17.86h-77.49V5.99h74.42v17.86h-56.63v52.1h53.57v17.61Z"/>
  <path class="cls-1" d="m357.86,7.95c10.84-1.96,23.72-3.42,37.82-3.42,25.56,0,43.75,7.09,55.81,20.55,12.27,13.45,19.42,32.53,19.42,59.19s-6.95,48.92-19.83,64.08c-12.88,15.41-34.14,23.73-60.93,23.73-12.68,0-23.31-.73-32.3-1.96V7.95Zm17.79,145.78c4.5.98,11.04,1.22,17.99,1.22,38.03,0,58.68-25.44,58.68-69.95.2-38.89-18.2-63.59-55.81-63.59-9.2,0-16.15.98-20.85,2.2v130.12Z"/>
  <path class="cls-1" d="m671.04,162.17c-6.54,3.91-19.63,7.83-36.39,7.83-38.85,0-68.08-29.35-68.08-83.41S595.8,0,638.53,0c17.17,0,28.01,4.4,32.71,7.34l-4.29,17.37c-6.75-3.91-16.36-6.85-27.8-6.85-32.3,0-53.77,24.7-53.77,68,0,40.36,19.42,66.28,52.95,66.28,10.84,0,21.88-2.69,29.03-6.85l3.68,16.88Z"/>
  <text class="cls-2" transform="translate(606.67 291.08) scale(.96 1)"><tspan x="0" y="0">HD</tspan></text>
  <text class="cls-2" transform="translate(805.68 291.08) scale(.96 1)"><tspan x="0" y="0">4K</tspan></text>
</svg>